<mxfile host="app.diagrams.net" modified="2023-11-20T11:01:07.432Z" agent="Mozilla/5.0 (Windows NT 10.0; Win64; x64) AppleWebKit/537.36 (KHTML, like Gecko) Chrome/109.0.0.0 Safari/537.36" version="22.1.3" etag="0ec6Xjhp_pvTZIAPkbXu" type="github">
  <diagram name="Page-1" id="O6DYJz_dhyMK2Sx-NVo5">
    <mxGraphModel>
      <root>
        <mxCell id="0" />
        <mxCell id="1" parent="0" />
      </root>
    </mxGraphModel>
  </diagram>
</mxfile>
